<svg xmlns="http://www.w3.org/2000/svg" viewBox="0 0 675.87 121.22"><title>Asset 1</title><g id="Layer_2" data-name="Layer 2"><g id="Layer_1-2" data-name="Layer 1"><rect x="100" y="84.6" width="10" height="10" style="fill:#fff"/><rect x="90" y="84.6" width="10" height="10" style="fill:#fff"/><rect x="80" y="84.6" width="10" height="10" style="fill:#fff"/><rect x="70" y="84.6" width="10" height="10" style="fill:#fff"/><rect x="30" y="84.6" width="10" height="10" style="fill:#fff"/><rect x="20" y="84.6" width="10" height="10" style="fill:#fff"/><rect x="10" y="84.6" width="10" height="10" style="fill:#fff"/><rect y="84.6" width="10" height="10" style="fill:#fff"/><rect x="100" y="74.6" width="10" height="10" style="fill:#fff"/><rect x="90" y="74.6" width="10" height="10" style="fill:#fff"/><rect x="80" y="74.6" width="10" height="10" style="fill:#fff"/><rect x="70" y="74.6" width="10" height="10" style="fill:#fff"/><rect x="30" y="74.6" width="10" height="10" style="fill:#fff"/><rect x="20" y="74.6" width="10" height="10" style="fill:#fff"/><rect x="10" y="74.6" width="10" height="10" style="fill:#fff"/><rect y="74.6" width="10" height="10" style="fill:#fff"/><rect x="100" y="64.6" width="10" height="10" style="fill:#fff"/><rect x="90" y="64.6" width="10" height="10" style="fill:#fff"/><rect x="80" y="64.6" width="10" height="10" style="fill:#fff"/><rect x="70" y="64.6" width="10" height="10" style="fill:#fff"/><rect x="60" y="64.6" width="10" height="10" style="fill:#fff"/><rect x="40" y="64.6" width="10" height="10" style="fill:#fff"/><rect x="30" y="64.6" width="10" height="10" style="fill:#fff"/><rect x="20" y="64.6" width="10" height="10" style="fill:#fff"/><rect x="10" y="64.6" width="10" height="10" style="fill:#fff"/><rect y="64.6" width="10" height="10" style="fill:#fff"/><rect x="100" y="54.6" width="10" height="10" style="fill:#fff"/><rect x="90" y="54.6" width="10" height="10" style="fill:#fff"/><rect x="80" y="54.6" width="10" height="10" style="fill:#fff"/><rect x="70" y="54.6" width="10" height="10" style="fill:#fff"/><rect x="60" y="54.6" width="10" height="10" style="fill:#fff"/><rect x="50" y="54.6" width="10" height="10" style="fill:#fff"/><rect x="40" y="54.6" width="10" height="10" style="fill:#fff"/><rect x="30" y="54.6" width="10" height="10" style="fill:#fff"/><rect x="20" y="54.6" width="10" height="10" style="fill:#fff"/><rect x="10" y="54.6" width="10" height="10" style="fill:#fff"/><rect y="54.6" width="10" height="10" style="fill:#fff"/><rect x="100" y="44.6" width="10" height="10" style="fill:#fff"/><rect x="80" y="44.6" width="10" height="10" style="fill:#fff"/><rect x="70" y="44.6" width="10" height="10" style="fill:#fff"/><rect x="60" y="44.6" width="10" height="10" style="fill:#fff"/><rect x="50" y="44.6" width="10" height="10" style="fill:#fff"/><rect x="40" y="44.6" width="10" height="10" style="fill:#fff"/><rect x="30" y="44.6" width="10" height="10" style="fill:#fff"/><rect x="20" y="44.6" width="10" height="10" style="fill:#fff"/><rect y="44.6" width="10" height="10" style="fill:#fff"/><rect x="70" y="34.6" width="10" height="10" style="fill:#fff"/><rect x="60" y="34.6" width="10" height="10" style="fill:#fff"/><rect x="50" y="34.6" width="10" height="10" style="fill:#fff"/><rect x="40" y="34.6" width="10" height="10" style="fill:#fff"/><rect x="30" y="34.6" width="10" height="10" style="fill:#fff"/><rect x="70" y="24.6" width="10" height="10" style="fill:#fff"/><rect x="60" y="24.6" width="10" height="10" style="fill:#fff"/><rect x="50" y="24.6" width="10" height="10" style="fill:#fff"/><rect x="40" y="24.6" width="10" height="10" style="fill:#fff"/><rect x="30" y="24.6" width="10" height="10" style="fill:#fff"/><rect x="70" y="14.6" width="10" height="10" style="fill:#fff"/><rect x="50" y="14.6" width="10" height="10" style="fill:#fff"/><rect x="30" y="14.6" width="10" height="10" style="fill:#fff"/><text transform="translate(112.5 94.6)" style="font-size:110px;fill:#fff;font-family:JetBrainsMono-Medium, JetBrains Mono"><tspan style="letter-spacing:-0.02570134943181818em">_B</tspan><tspan x="126.34" y="0" style="letter-spacing:-0.036700994318181815em">u</tspan><tspan x="188.31" y="0" style="letter-spacing:-0.0075994318181818185em">r</tspan><tspan x="253.47" y="0" style="letter-spacing:-0.025896661931818183em">g</tspan><tspan x="316.62" y="0" style="letter-spacing:-0.03719815340909091em">B</tspan><tspan x="378.53" y="0" style="letter-spacing:-0.08840553977272728em">i</tspan><tspan x="434.8" y="0" style="letter-spacing:-0.031196732954545454em">t</tspan><tspan x="497.37" y="0">s</tspan></text></g></g></svg>