<?xml version="1.0" encoding="utf-8"?>
<!-- Generator: Adobe Illustrator 22.1.0, SVG Export Plug-In . SVG Version: 6.00 Build 0)  -->
<svg version="1.1" id="Layer_1" xmlns="http://www.w3.org/2000/svg" xmlns:xlink="http://www.w3.org/1999/xlink" x="0px" y="0px"
	 viewBox="0 0 800 210" style="enable-background:new 0 0 800 210;" xml:space="preserve">
<style type="text/css">
	.st0{fill:#E30613;}
	.st1{fill:#FFFFFF;}
</style>
<rect class="st0" width="800" height="210"/>
<g>
	<polygon class="st1" points="164,94.6 164,104.6 154,104.6 154,94.6 144,94.6 144,84.6 144,74.6 144,64.6 134,64.6 134,74.6 
		124,74.6 124,64.6 114,64.6 114,74.6 104,74.6 104,64.6 94,64.6 94,74.6 94,84.6 94,94.6 84,94.6 84,104.6 74,104.6 74,94.6 
		64,94.6 64,104.6 64,114.6 64,124.6 64,134.6 64,144.6 74,144.6 84,144.6 94,144.6 104,144.6 104,134.6 104,124.6 114,124.6 
		114,114.6 124,114.6 124,124.6 134,124.6 134,134.6 134,144.6 144,144.6 154,144.6 164,144.6 174,144.6 174,134.6 174,124.6 
		174,114.6 174,104.6 174,94.6 	"/>
	<g>
		<path class="st1" d="M185.8,147.4h53.5V158h-53.5V147.4z"/>
		<path class="st1" d="M275.9,65.4c7.8,0,13.9,1.8,18.3,5.5s6.6,8.7,6.6,15.2c0,4.8-1.3,8.7-4,11.7s-6.3,4.7-10.8,5.1v0.8
			c5.1,0.4,9,2.2,11.9,5.4c2.9,3.2,4.3,7.6,4.3,13.1c0,7-2.3,12.5-6.8,16.5s-10.7,6-18.5,6h-25.3V65.4H275.9z M263.5,75.7v23.1h12.3
			c3.8,0,6.9-1,9.1-3.1c2.3-2.1,3.4-4.9,3.4-8.4s-1.1-6.3-3.4-8.4c-2.2-2.1-5.3-3.1-9.2-3.1L263.5,75.7L263.5,75.7z M263.5,134.2
			H276c4.3,0,7.7-1.1,10.1-3.3s3.6-5.3,3.6-9.2s-1.2-7.1-3.6-9.3c-2.4-2.2-5.8-3.4-10.1-3.4h-12.5V134.2z"/>
		<path class="st1" d="M314.9,84.1H327v38.4c0,8.4,3.9,12.7,11.8,12.7c8.1,0,12.1-4.2,12.1-12.7V84.1h12v38.4
			c0,7.4-2.1,13.1-6.3,17.2c-4.2,4-10.1,6-17.8,6c-7.6,0-13.4-2-17.6-6.1s-6.3-9.8-6.3-17.1L314.9,84.1L314.9,84.1z"/>
		<path class="st1" d="M379,84.1h11.4v10.5h1c0.8-3.7,2.7-6.5,5.7-8.5s6.7-3,11.2-3c6.5,0,11.5,2,15.2,6s5.5,9.6,5.5,16.7v4h-12.4
			V107c0-4.3-1.1-7.6-3.4-10s-5.4-3.6-9.4-3.6c-3.9,0-7,1.2-9.2,3.6c-2.3,2.4-3.4,5.7-3.4,9.9v37.7H379V84.1z"/>
		<path class="st1" d="M440.1,106.3c0-3.5,0.5-6.7,1.4-9.6c1-2.9,2.3-5.4,4.2-7.4c1.8-2,4-3.6,6.6-4.7s5.4-1.7,8.6-1.7
			c4.5,0,8.2,1.1,11.2,3.2s5,5.1,5.8,8.9h0.8V84h11.4v56.5c0,6.9-2.2,12.3-6.5,16.2c-4.4,3.9-10.4,5.9-18,5.9H450v-10.3h15.6
			c3.9,0,6.9-1,9.2-3.1c2.2-2.1,3.4-5,3.4-8.6v-1.8l0.4-11.5H478c-1,3.8-2.9,6.8-5.9,8.9c-3,2.1-6.7,3.2-11.2,3.2
			c-3.2,0-6-0.6-8.5-1.7c-2.5-1.1-4.7-2.7-6.5-4.7s-3.2-4.5-4.2-7.4s-1.5-6.1-1.5-9.6L440.1,106.3L440.1,106.3z M452.3,116
			c0,4,1.2,7.2,3.5,9.5s5.4,3.5,9.4,3.5s7.2-1.2,9.5-3.5s3.5-5.5,3.5-9.5v-9.6c0-4-1.2-7.2-3.5-9.5s-5.5-3.5-9.5-3.5
			s-7.1,1.2-9.4,3.5s-3.5,5.5-3.5,9.5V116z"/>
		<path class="st1" d="M529.3,65.4c7.8,0,13.9,1.8,18.3,5.5c4.4,3.7,6.6,8.7,6.6,15.2c0,4.8-1.3,8.7-4,11.7s-6.3,4.7-10.8,5.1v0.8
			c5.1,0.4,9,2.2,11.9,5.4c2.9,3.2,4.3,7.6,4.3,13.1c0,7-2.3,12.5-6.8,16.5s-10.7,6-18.5,6H505V65.4H529.3z M516.9,75.7v23.1h12.3
			c3.8,0,6.9-1,9.1-3.1c2.3-2.1,3.4-4.9,3.4-8.4s-1.1-6.3-3.4-8.4c-2.2-2.1-5.3-3.1-9.2-3.1L516.9,75.7L516.9,75.7z M516.9,134.2
			h12.5c4.3,0,7.7-1.1,10.1-3.3s3.6-5.3,3.6-9.2s-1.2-7.1-3.6-9.3c-2.4-2.2-5.8-3.4-10.1-3.4h-12.5V134.2z"/>
		<path class="st1" d="M567.7,144.6v-11h21.9V95h-19.1V84.1h30.8v49.5h17.8v11H567.7z M592.7,60.5h2.5c2.3,0,4.1,0.6,5.5,1.9
			c1.4,1.3,2.1,3,2.1,5.1s-0.7,3.8-2.1,5.1c-1.4,1.2-3.2,1.9-5.5,1.9h-2.5c-2.3,0-4.1-0.6-5.4-1.9c-1.4-1.2-2-2.9-2-5.1
			c0-2.1,0.7-3.8,2-5.1C588.6,61.1,590.4,60.5,592.7,60.5z"/>
		<path class="st1" d="M620,84.1h17V65.4h12.1v18.7h23.2V95h-23.2v32.2c0,2,0.6,3.5,1.8,4.7c1.2,1.1,2.8,1.7,5,1.7h15.4v11h-16
			c-5.6,0-10.1-1.6-13.4-4.7c-3.3-3.2-4.9-7.4-4.9-12.6V95h-17L620,84.1L620,84.1z"/>
		<path class="st1" d="M707.8,145.7c-6.7,0-12.2-1.4-16.4-4.3c-4.2-2.9-6.6-6.9-7.2-11.9h12.5c0.4,2,1.7,3.6,3.7,4.7
			c2,1.2,4.5,1.8,7.4,1.8h4c3.6,0,6.4-0.7,8.4-2.2s3-3.5,3-6c0-4.4-3.2-7-9.7-7.9l-8.8-1.2c-6.5-0.8-11.3-2.7-14.5-5.6
			c-3.1-2.9-4.7-7-4.7-12.3c0-5.6,2-9.9,5.9-13s9.5-4.6,16.8-4.6h3.9c6.4,0,11.6,1.4,15.6,4.2c4,2.8,6.4,6.7,7.1,11.5h-12.4
			c-0.4-1.8-1.6-3.3-3.4-4.3c-1.8-1.1-4.1-1.6-6.8-1.6h-3.9c-3.4,0-6.1,0.6-7.9,1.9c-1.8,1.3-2.8,3.2-2.8,5.8c0,2.1,0.7,3.8,2,5
			c1.4,1.2,3.5,1.9,6.5,2.3l9,1.2c6.9,1,12,2.9,15.2,5.8s4.8,7.1,4.8,12.5c0,5.9-2,10.4-6,13.6s-9.8,4.8-17.4,4.8h-3.9V145.7z"/>
	</g>
</g>
</svg>
