<?xml version="1.0" standalone="no"?>
<!DOCTYPE svg PUBLIC "-//W3C//DTD SVG 20010904//EN"
 "http://www.w3.org/TR/2001/REC-SVG-20010904/DTD/svg10.dtd">
<svg version="1.0" xmlns="http://www.w3.org/2000/svg"
 width="250.000000pt" height="250.000000pt" viewBox="0 0 250.000000 250.000000"
 preserveAspectRatio="xMidYMid meet">
<metadata>
Created by potrace 1.14, written by Peter Selinger 2001-2017
</metadata>
<g transform="translate(0.000000,250.000000) scale(0.100000,-0.100000)"
fill="#000000" stroke="none">
<path d="M667 2183 c-4 -3 -7 -156 -7 -340 l0 -333 -110 0 -110 0 0 -115 0
-115 -115 0 -115 0 0 115 0 115 -105 0 -105 0 0 -570 0 -570 445 0 445 0 0
225 0 225 115 0 115 0 0 115 0 115 115 0 115 0 0 -115 0 -115 110 0 110 0 0
-225 0 -225 455 0 455 0 0 570 0 571 -112 -3 -113 -3 -3 -112 -3 -113 -109 0
-109 0 -3 113 -3 112 -112 3 -113 3 0 340 0 340 -112 -3 -113 -3 -3 -112 -3
-113 -109 0 -109 0 -3 113 -3 112 -112 3 -113 3 0 -116 0 -115 -115 0 -115 0
0 115 0 115 -108 0 c-60 0 -112 -3 -115 -7z"/>
</g>
</svg>
