<?xml version="1.0" encoding="utf-8"?>
<!-- Generator: Adobe Illustrator 22.1.0, SVG Export Plug-In . SVG Version: 6.00 Build 0)  -->
<svg version="1.1" id="Layer_1" xmlns="http://www.w3.org/2000/svg" xmlns:xlink="http://www.w3.org/1999/xlink" x="0px" y="0px"
	 viewBox="0 0 150 150" style="enable-background:new 0 0 150 150;" xml:space="preserve">
<style type="text/css">
	.st0{fill:#E30613;}
	.st1{fill:#FFFFFF;}
</style>
<rect class="st0" width="150" height="150"/>
<polygon class="st1" points="120,65 120,75 110,75 110,65 100,65 100,55 100,45 100,35 90,35 90,45 80,45 80,35 70,35 70,45 60,45 
	60,35 50,35 50,45 50,55 50,65 40,65 40,75 30,75 30,65 20,65 20,75 20,85 20,95 20,105 20,115 30,115 40,115 50,115 60,115 60,105 
	60,95 70,95 70,85 80,85 80,95 90,95 90,105 90,115 100,115 110,115 120,115 130,115 130,105 130,95 130,85 130,75 130,65 "/>
</svg>
