<svg xmlns="http://www.w3.org/2000/svg" viewBox="0 0 1200 1200">
    <path fill="currentColor" d="M599.41,634.47l36.15-13C709.1,595,763.46,495.91,768.62,382H427.86C433,497.6,488.36,597.09,563.22,622.29ZM490.31,506h219c0,61-49,110.51-109.5,110.51S490.31,567.05,490.31,506Z"/>
    <path fill="currentColor" d="M635.86,654l-36-12.42-36,13.24c-73.75,27.12-128.24,129-133.28,246h2.94c4-77.1,79.29-138.57,171.57-138.57,75.43,0,139.45,41.09,162.54,98.2C753.22,759.53,702.22,676.89,635.86,654Z"/>
    <path fill="currentColor" d="M600.45,163C338.39,163,126,375.44,126,637.5S338.39,1112,600.45,1112,1075,899.56,1075,637.5,862.51,163,600.45,163ZM851,942.39C851,957,836.24,969,818.21,969H383.75c-18,0-32.79-12-32.79-26.61V930.2c0-14.63,14.75-26.61,32.79-26.61h3c3.91-116.3,53.11-218.11,125.57-264.37-73.42-44-123.46-142.87-128.18-257.21h-.4c-18,0-32.79-12-32.79-26.61V343.21c0-14.64,14.75-26.61,32.79-26.61H818.21c18,0,32.79,12,32.79,26.61V355.4C851,370,836.24,382,818.21,382h-5.87c-4.69,112.41-53.63,210.58-125.42,255.47C761,682.84,811.26,785.35,815.2,903.59h3c18,0,32.79,12,32.79,26.61Z"/>
</svg>